HIERARCHY
ROOT Hips
{
  OFFSET -33.9132 29.2015 117.021
  CHANNELS 6 Xposition Yposition Zposition Zrotation Xrotation Yrotation
  JOINT LeftUpLeg
  {
    OFFSET 8.64259 1.95398 -2.38835
    CHANNELS 3 Zrotation Xrotation Yrotation
    JOINT LeftLeg
    {
      OFFSET 43.7702 0 0
      CHANNELS 3 Zrotation Xrotation Yrotation
      JOINT LeftFoot
      {
        OFFSET 40.6238 0 0
        CHANNELS 3 Zrotation Xrotation Yrotation
        JOINT LeftToeBase
        {
          OFFSET 12.7242 0 0
          CHANNELS 3 Zrotation Xrotation Yrotation
          End Site
          {
            OFFSET 0 0 0
          }
        }
      }
    }
  }
  JOINT RightUpLeg
  {
    OFFSET -8.2249 1.95398 -2.59336
    CHANNELS 3 Zrotation Xrotation Yrotation
    JOINT RightLeg
    {
      OFFSET 43.5653 0 0
      CHANNELS 3 Zrotation Xrotation Yrotation
      JOINT RightFoot
      {
        OFFSET 40.6238 0 0
        CHANNELS 3 Zrotation Xrotation Yrotation
        JOINT RightToeBase
        {
          OFFSET 12.7242 0 0
          CHANNELS 3 Zrotation Xrotation Yrotation
          End Site
          {
            OFFSET 0 0 0
          }
        }
      }
    }
  }
  JOINT Spine
  {
    OFFSET 0.165834 0.87714 6.61349
    CHANNELS 3 Zrotation Xrotation Yrotation
    JOINT Spine1
    {
      OFFSET 7.38963 1.71661e-005 0
      CHANNELS 3 Zrotation Xrotation Yrotation
      JOINT Spine2
      {
        OFFSET 11.9445 1.14441e-005 0
        CHANNELS 3 Zrotation Xrotation Yrotation
        JOINT Spine3
        {
          OFFSET 14.7254 4.19617e-005 0
          CHANNELS 3 Zrotation Xrotation Yrotation
          JOINT Spine4
          {
            OFFSET 10.9679 0 0
            CHANNELS 3 Zrotation Xrotation Yrotation
            JOINT RightShoulder
            {
              OFFSET 2.46616 -1.6653 3.69651
              CHANNELS 3 Zrotation Xrotation Yrotation
              JOINT RightArm
              {
                OFFSET 13.0012 0 0
                CHANNELS 3 Zrotation Xrotation Yrotation
                JOINT RightForeArm
                {
                  OFFSET 28.7848 1.62311e-005 0
                  CHANNELS 3 Zrotation Xrotation Yrotation
                  JOINT RightHand
                  {
                    OFFSET 26.5688 1.62095e-005 0
                    CHANNELS 3 Zrotation Xrotation Yrotation
                    End Site
                    {
                      OFFSET 0 0 0
                    }
                  }
                }
              }
            }
            JOINT LeftShoulder
            {
              OFFSET 2.38034 -1.29275 -3.7523
              CHANNELS 3 Zrotation Xrotation Yrotation
              JOINT LeftArm
              {
                OFFSET 16.3182 6.07031e-005 0
                CHANNELS 3 Zrotation Xrotation Yrotation
                JOINT LeftForeArm
                {
                  OFFSET 27.0901 0 0
                  CHANNELS 3 Zrotation Xrotation Yrotation
                  JOINT LeftHand
                  {
                    OFFSET 24.5451 1.51738e-005 0
                    CHANNELS 3 Zrotation Xrotation Yrotation
                    End Site
                    {
                      OFFSET 0 0 0
                    }
                  }
                }
              }
            }
            JOINT Neck
            {
              OFFSET 5.0226 -0.0266342 0
              CHANNELS 3 Zrotation Xrotation Yrotation
              JOINT Head
              {
                OFFSET 6.69364 2.86102e-005 0
                CHANNELS 3 Zrotation Xrotation Yrotation
                End Site
                {
                  OFFSET 0 0 0
                }
              }
            }
          }
        }
      }
    }
  }
}
MOTION
Frames:	10
Frame Time:	0.0416667
42.3789 102.525 -262.238 -161.171 -84.775 -162.294 -175.513 -4.23415 87.58 -8.74786 4.9213 0.364361 68.4831 5.1625 -1.65944 19.136 -9.93979 9.65739 173.955 -3.01729 90.54 -10.298 -5.85445 0.282061 66.3721 -3.56882 0.079277 24.8226 1.68593 0.509581 0.192112 7.5319 -90.0801 11.8104 0.344389 -0.196405 0.139506 0.335418 -0.211371 -22.396 0.387499 -0.0838172 -2.38334 0.387495 -0.0838206 90.9168 -28.2521 -105.577 51.127 3.50316 -7.45234 -5.82456 -48.8692 -5.78721 -18.9356 2.23821 -19.0759 -88.5272 -49.9108 80.9158 -22.6939 -6.21004 -16.1081 -12.4516 33.2695 -0.0220414 9.94589 -1.74214 -20.9967 5.60997 -2.51442 -1.45686 -6.50894 -2.19502 -0.150391 
42.2801 102.512 -262.223 -161.49 -84.9329 -162.541 -175.589 -3.16583 87.6938 -10.5868 3.6422 0.65143 70.0132 5.42598 -2.55709 14.6406 -9.99962 5.26314 174.225 -2.77533 90.778 -10.4876 -5.53259 0.154768 65.957 -3.5072 0.73372 25.4261 1.42869 0.435158 0.194659 7.52347 -90.0563 11.8272 0.360653 -0.150689 0.156288 0.353667 -0.166418 -22.3793 0.389267 -0.0353268 -2.3666 0.389268 -0.0353308 90.413 -29.2542 -106.22 50.2881 3.87302 -7.49604 -5.89269 -49.6469 -5.83459 -18.5085 2.10034 -18.5496 -88.2188 -49.6076 81.3225 -22.6938 -5.69044 -16.0031 -12.6242 32.8708 -0.0219417 8.99226 -1.56929 -20.3665 5.05089 -2.40427 -2.0145 -5.51439 -1.99032 -0.270475 
42.1523 102.515 -262.109 -158.487 -84.974 -159.373 -175.606 -3.07129 87.8567 -10.6229 3.15561 0.808461 70.3293 5.53101 -2.78631 13.547 -10.0037 4.2691 174.528 -2.69543 91.1408 -10.5987 -5.14748 0.0131754 66.2783 -3.79393 0.515198 25.4874 1.45731 0.234668 0.242118 7.51726 -90.0833 11.8398 0.442387 -0.21314 0.168941 0.432584 -0.232407 -22.3668 0.485988 -0.0703263 -2.35415 0.485988 -0.0703307 90.3813 -28.9213 -106.41 50.5019 3.77982 -7.48204 -5.81546 -48.7619 -5.78094 -17.9271 1.98235 -18.236 -88.1916 -49.2368 81.2944 -23.2887 -5.91437 -15.9204 -12.5248 32.1392 -0.0217639 4.26586 -0.232274 -14.3334 5.1329 -2.43679 -1.91473 -5.6769 -2.03715 -0.32309 
42.0405 102.495 -261.866 -158.776 -85.2394 -159.927 -175.738 -3.27082 87.6395 -10.0325 3.23863 0.819119 70.237 5.63721 -2.69545 13.6382 -9.96823 4.298 174.518 -2.45629 91.0323 -10.9653 -5.06367 -0.0799262 66.593 -3.96461 0.420788 25.3221 1.50538 0.334687 0.234624 7.47742 -90.0874 11.9195 0.425393 -0.220149 0.248559 0.415288 -0.238672 -22.2871 0.471882 -0.0821229 -2.27447 0.471891 -0.0821225 90.7056 -28.6663 -105.851 50.6724 3.70185 -7.48142 -5.84452 -49.0978 -5.80102 -17.8399 2.02805 -18.6004 -88.3917 -49.8153 81.1015 -22.947 -6.6684 -15.5138 -12.2716 32.4789 -0.0218457 4.47177 -0.33622 -15.2103 5.17879 -2.36261 -0.994168 -5.95378 -2.11075 -1.14196 
41.7952 102.471 -261.54 -161.516 -85.3572 -162.664 -175.548 -3.44118 87.8867 -10.0343 3.69467 0.72584 70.225 5.67417 -2.54056 13.7224 -9.51221 3.64925 174.543 -2.65603 91.1787 -11.0132 -4.76325 -0.0183358 66.8511 -4.11369 0.565081 25.3974 1.60741 -0.144623 0.209274 7.50673 -90.0421 11.8607 0.396383 -0.126331 0.189821 0.390438 -0.143658 -22.3458 0.416023 -0.00135788 -2.33318 0.416019 -0.00135998 90.195 -29.1403 -106.701 50.4367 3.76578 -7.61508 -5.80703 -48.6631 -5.77513 -18.6457 2.0888 -18.3736 -88.2311 -49.0016 81.19 -23.6288 -6.80456 -15.5266 -12.1366 31.9527 -0.0217196 4.76022 -0.375259 -15.1151 5.03152 -2.42813 -2.26847 -5.36772 -1.97375 -0.0266988 
41.3899 102.433 -261.16 -162.072 -85.5064 -163.344 -175.532 -3.52528 88.0332 -10.1159 3.52165 0.817048 70.5639 5.85287 -3.22357 13.9028 -9.52555 3.83217 174.49 -2.79869 91.2727 -11.0214 -4.72259 0.100559 67.1175 -4.30238 0.303154 25.5205 1.51109 -0.00908085 0.239418 7.49424 -90.0718 11.8858 0.442345 -0.190554 0.214958 0.43353 -0.209851 -22.3208 0.479163 -0.0487942 -2.30814 0.479159 -0.0488024 90.9744 -28.5509 -105.349 50.7992 3.53078 -7.81988 -5.8163 -48.7726 -5.78151 -17.0768 2.00082 -19.0425 -88.3413 -50.0788 81.2263 -22.5592 -6.68871 -15.5505 -12.2194 32.9162 -0.021953 4.34806 -0.362406 -15.8857 5.11632 -2.48892 -1.12645 -5.70554 -2.22492 -0.694297 
40.8014 102.358 -260.641 -160.513 -85.5759 -161.925 -174.893 -3.83354 88.6316 -9.98148 4.11195 0.251055 70.7372 6.38954 -2.99244 14.9456 -9.70238 5.08627 174.636 -2.73465 91.5196 -11.7504 -4.30652 0.0165512 67.8205 -4.55322 0.537776 24.9967 1.66299 0.31126 0.255032 7.51275 -90.0541 11.8487 0.48175 -0.159515 0.177852 0.474264 -0.180568 -22.358 0.50741 -0.00735278 -2.34535 0.507421 -0.00734387 90.7026 -28.3444 -105.979 50.9311 3.49966 -7.73133 -5.76964 -48.2224 -5.74961 -18.1028 1.92972 -17.7813 -88.2145 -50.5964 81.5121 -21.8689 -6.95429 -15.0765 -12.2688 30.5968 -0.0214096 3.92312 -0.390687 -16.6796 4.95998 -2.18402 -0.0488702 -5.70907 -2.10061 -1.5481 
39.9987 102.206 -259.788 -165.027 -85.3465 -166.798 -174.318 -4.38557 89.1225 -10.6493 4.8364 -0.153551 71.4031 7.25935 -3.05209 15.4121 -9.60269 5.34491 174.573 -3.42518 91.6437 -12.2369 -3.9654 0.0245098 68.7087 -4.93267 0.406168 25.282 1.56162 0.203151 0.251544 7.57114 -89.9628 11.7317 0.517824 0.0198358 0.0609151 0.518185 -0.00297831 -22.475 0.487907 0.174547 -2.46237 0.487915 0.174555 90.6872 -28.4408 -105.974 50.6676 3.61382 -7.75335 -5.86986 -49.39 -5.81855 -17.9371 2.06913 -18.7983 -88.2093 -50.6494 81.5293 -20.9096 -7.16013 -13.5413 -12.3076 27.2444 -0.0170273 4.21736 -0.539222 -17.2882 4.20388 -2.02097 0.504769 -5.08981 -2.03795 -2.07518 
39.0681 101.838 -259.064 -162.585 -84.9397 -165.021 -173.943 -4.40007 89.2876 -12.4949 4.02716 -0.435162 72.7893 8.68923 -4.06221 18.6702 -9.92738 9.14462 173.443 -2.76231 90.8575 -15.3615 -5.60586 0.80812 70.5799 -5.76326 -0.363704 25.2084 1.52119 0.463094 0.324969 7.67612 -89.8882 11.5213 0.698826 0.151047 -0.14948 0.70481 0.120138 -22.6858 0.621125 0.354107 -2.67316 0.621123 0.354092 90.3632 -27.7538 -106.904 50.7101 3.57367 -7.81456 -5.92448 -50.0028 -5.85703 -18.9549 1.89151 -16.9393 -88.1379 -51.7115 81.8262 -19.7836 -8.54302 -13.0354 -11.9737 27.686 -0.0428983 4.26119 -0.612225 -18.5855 3.66621 -1.71096 1.9781 -4.81334 -1.97698 -2.68999 
38.2006 100.947 -258.606 -165.641 -85.5275 -168.522 -174.543 -0.804643 89.6892 -19.5316 2.95385 0.186195 74.1097 10.3576 -4.38494 23.6459 -8.80425 12.6844 172.708 -0.952837 90.4671 -18.9027 -5.23636 1.48998 73.4737 -6.66495 0.342257 26.1718 0.830964 1.33904 0.397398 7.71571 -89.8119 11.4413 0.878582 0.285725 -0.229382 0.890308 0.246775 -22.7661 0.752087 0.536576 -2.75349 0.752095 0.536581 89.8163 -27.6521 -108.066 50.081 3.87495 -7.78127 -5.88441 -49.5556 -5.82888 -19.064 1.81346 -16.3936 -88.0706 -51.9763 81.9719 -18.7259 -9.27998 -11.7259 -11.7059 26.931 -0.109096 4.74224 -0.746816 -19.0941 3.1231 -1.67877 2.63713 -3.9027 -2.06871 -2.61023 
